<svg width="12" height="12" viewBox="0 0 12 12" fill="none" xmlns="http://www.w3.org/2000/svg">
<path d="M10.0384 7.20018C10.1516 7.36323 10.314 7.48582 10.5019 7.55006C10.6897 7.6143 10.8932 7.61682 11.0826 7.55727C11.2719 7.49772 11.4373 7.3792 11.5546 7.21902C11.6719 7.05883 11.7349 6.86536 11.7344 6.66684C11.7349 6.46831 11.6719 6.27484 11.5546 6.11466C11.4373 5.95447 11.2719 5.83596 11.0826 5.7764C10.8932 5.71685 10.6897 5.71938 10.5019 5.78362C10.314 5.84785 10.1516 5.97044 10.0384 6.13349H9.60104C9.60104 5.29614 9.33436 4.53345 8.85435 3.89877L9.56904 3.18408C9.86771 3.23742 10.1717 3.15208 10.4011 2.93341C10.7584 2.5654 10.7584 1.97339 10.4011 1.60004C10.033 1.2427 9.44103 1.2427 9.06769 1.60004C8.84902 1.82938 8.76368 2.13339 8.81702 2.43206L8.10233 3.14675C7.61165 2.77874 7.03564 2.5334 6.40096 2.44273V1.69605C6.564 1.58279 6.68659 1.42039 6.75083 1.23255C6.81507 1.04471 6.8176 0.841253 6.75804 0.651873C6.69849 0.462493 6.57997 0.297101 6.41979 0.179832C6.2596 0.0625631 6.06613 -0.000444948 5.86761 2.36532e-06C5.66909 -0.000444948 5.47562 0.0625631 5.31543 0.179832C5.15525 0.297101 5.03673 0.462493 4.97718 0.651873C4.91762 0.841253 4.92015 1.04471 4.98439 1.23255C5.04863 1.42039 5.17121 1.58279 5.33426 1.69605V2.44273C4.85425 2.51207 4.40624 2.66674 4.0009 2.90141L3.40888 2.05339C3.51022 1.77605 3.48355 1.45604 3.30221 1.20003C3.23191 1.09942 3.14245 1.01365 3.03896 0.947657C2.93547 0.88166 2.81998 0.836724 2.6991 0.815421C2.57822 0.794118 2.45432 0.796868 2.33451 0.823512C2.21469 0.850155 2.10131 0.900171 2.00084 0.970693C1.5795 1.26403 1.47283 1.84538 1.77151 2.26673C1.95284 2.52807 2.24085 2.66674 2.53419 2.66674L3.16354 3.56276C2.9342 3.7921 2.75286 4.0481 2.59819 4.33078C2.43006 4.26509 2.24656 4.24927 2.06966 4.28522C1.89277 4.32116 1.72999 4.40735 1.60083 4.53345C1.24349 4.90679 1.24349 5.49347 1.60083 5.86682C1.75551 6.01082 1.94218 6.09616 2.13418 6.13349C2.13418 6.4215 2.17152 6.69884 2.23018 6.96551L1.5315 7.15218C1.30749 6.96551 0.998153 6.88551 0.688812 6.96551C0.449757 7.03058 0.246342 7.18795 0.123315 7.40299C0.000288049 7.61804 -0.032273 7.87315 0.0327951 8.11221C0.0978632 8.35126 0.25523 8.55468 0.470277 8.6777C0.685325 8.80073 0.940436 8.83329 1.17949 8.76822C1.4835 8.68289 1.71284 8.45888 1.80884 8.18154L2.61419 7.96287C2.8542 8.38421 3.17421 8.75756 3.54755 9.0669L2.96087 10.1336C2.66753 10.1763 2.40085 10.3416 2.24618 10.6243C2.18805 10.7321 2.15173 10.8504 2.1393 10.9723C2.12687 11.0942 2.13857 11.2173 2.17373 11.3347C2.2089 11.4521 2.26683 11.5614 2.34424 11.6564C2.42164 11.7514 2.517 11.8302 2.62486 11.8883C2.73272 11.9464 2.85098 11.9828 2.97288 11.9952C3.09477 12.0076 3.21793 11.9959 3.3353 11.9608C3.45268 11.9256 3.56198 11.8677 3.65697 11.7902C3.75195 11.7128 3.83076 11.6175 3.88889 11.5096C4.03823 11.2323 4.0329 10.9123 3.89956 10.6509L4.47024 9.60024C4.90225 9.77092 5.3716 9.86692 5.86761 9.86692H5.96361C5.89428 10.0056 5.86761 10.1656 5.86761 10.3363C5.91028 10.8536 6.35829 11.2376 6.8703 11.2003C7.38231 11.1629 7.77166 10.7096 7.73432 10.1976C7.71299 9.93092 7.57965 9.69625 7.38765 9.54158C7.63832 9.42957 7.87833 9.28557 8.10233 9.12023L9.35036 10.3683C9.29703 10.6669 9.38236 10.9709 9.60104 11.2003C9.97438 11.5576 10.5611 11.5576 10.9344 11.2003C11.3077 10.8429 11.2917 10.2403 10.9344 9.86692C10.7051 9.64824 10.4011 9.56291 10.1024 9.61624L8.85435 8.36821C9.11569 8.02154 9.31836 7.62686 9.44637 7.20018H10.0384ZM5.06759 6.13349C4.62491 6.13349 4.26757 5.77615 4.26757 5.33347C4.26757 4.89079 4.62491 4.53345 5.06759 4.53345C5.51027 4.53345 5.86761 4.89079 5.86761 5.33347C5.86761 5.77615 5.51027 6.13349 5.06759 6.13349ZM6.9343 7.73353C6.64096 7.73353 6.40096 7.49352 6.40096 7.20018C6.40096 6.90684 6.64096 6.66684 6.9343 6.66684C7.22764 6.66684 7.46765 6.90684 7.46765 7.20018C7.46765 7.49352 7.22764 7.73353 6.9343 7.73353Z" fill="#9DBDCF"/>
</svg>
