<svg width="766" height="138" viewBox="0 0 766 138" fill="none" xmlns="http://www.w3.org/2000/svg">
<g filter="url(#filter0_b_2_73)">
<rect width="378" height="138" rx="10" fill="#799EAE" fill-opacity="0.3"/>
</g>
<path d="M35.92 43.32L29.84 38.92V34.6L35.92 30.2L38.12 34.08L33.12 36.16V37.36L38.12 39.44L35.92 43.32ZM30.04 26.72L29.28 34.2L25.52 36.36L18.68 33.28L20.92 29.44L25.24 32.72L26.28 32.12L25.56 26.76L30.04 26.72ZM18.68 40.24L25.52 37.16L29.28 39.32L30.04 46.8L25.6 46.72L26.28 41.4L25.24 40.8L20.92 44.04L18.68 40.24ZM47.1734 58V32.32L48.9334 33.68H41.2134V28.8H52.8134V58H47.1734ZM59.0456 58V51.6H65.2856V58H59.0456ZM80.3878 27.96C82.5478 27.96 84.3745 28.3333 85.8678 29.08C87.3878 29.8 88.6145 30.8 89.5478 32.08C90.4811 33.36 91.1611 34.8533 91.5878 36.56C92.0145 38.24 92.2278 40.0267 92.2278 41.92V43.68C92.2278 48.4533 91.0145 52.08 88.5878 54.56C86.1878 57.0133 82.6545 58.24 77.9878 58.24C76.9745 58.24 76.0278 58.2133 75.1478 58.16C74.2678 58.1067 73.3878 58.0267 72.5078 57.92V53.16C73.3878 53.2667 74.2811 53.3467 75.1878 53.4C76.1211 53.4533 77.1211 53.48 78.1878 53.48C80.4278 53.48 82.1878 53.0933 83.4678 52.32C84.7478 51.5467 85.6545 50.4133 86.1878 48.92C86.7478 47.4267 87.0278 45.5733 87.0278 43.36V40.76L88.3078 38.92C88.2811 40.9733 87.8678 42.68 87.0678 44.04C86.2945 45.3733 85.2145 46.3867 83.8278 47.08C82.4411 47.7467 80.8545 48.08 79.0678 48.08C76.9878 48.08 75.2145 47.6667 73.7478 46.84C72.2811 46.0133 71.1478 44.8667 70.3478 43.4C69.5745 41.9333 69.1878 40.2267 69.1878 38.28C69.1878 36.2533 69.6411 34.4667 70.5478 32.92C71.4545 31.3467 72.7345 30.1333 74.3878 29.28C76.0678 28.4 78.0678 27.96 80.3878 27.96ZM80.5078 32.72C79.2545 32.72 78.1878 32.96 77.3078 33.44C76.4278 33.8933 75.7611 34.5333 75.3078 35.36C74.8545 36.1867 74.6278 37.1333 74.6278 38.2C74.6278 39.2933 74.8411 40.2533 75.2678 41.08C75.7211 41.9067 76.3745 42.5467 77.2278 43C78.0811 43.4533 79.1078 43.68 80.3078 43.68C81.4545 43.68 82.4945 43.48 83.4278 43.08C84.3878 42.6533 85.1345 42.04 85.6678 41.24C86.2278 40.4133 86.5078 39.4 86.5078 38.2C86.5078 37.16 86.2811 36.2267 85.8278 35.4C85.4011 34.5733 84.7345 33.92 83.8278 33.44C82.9478 32.96 81.8411 32.72 80.5078 32.72ZM98.2172 58V28.8H105.977L113.297 46.24H114.017L121.297 28.8H129.177V58H123.537V33.08L124.257 33.16L116.377 52.04H110.577L102.657 33.16L103.417 33.08V58H98.2172Z" fill="white"/>
<path d="M202.146 113V104.252H203.37L203.496 105.512H203.55C203.934 105.092 204.354 104.744 204.81 104.468C205.266 104.18 205.752 104.036 206.268 104.036C206.94 104.036 207.462 104.186 207.834 104.486C208.218 104.774 208.5 105.182 208.68 105.71C209.136 105.218 209.598 104.816 210.066 104.504C210.534 104.192 211.032 104.036 211.56 104.036C212.46 104.036 213.126 104.33 213.558 104.918C214.002 105.494 214.224 106.34 214.224 107.456V113H212.748V107.654C212.748 106.838 212.616 106.244 212.352 105.872C212.088 105.5 211.68 105.314 211.128 105.314C210.48 105.314 209.748 105.764 208.932 106.664V113H207.456V107.654C207.456 106.838 207.324 106.244 207.06 105.872C206.796 105.5 206.382 105.314 205.818 105.314C205.17 105.314 204.438 105.764 203.622 106.664V113H202.146ZM220.616 113.216C219.836 113.216 219.128 113.036 218.492 112.676C217.856 112.304 217.352 111.776 216.98 111.092C216.608 110.408 216.422 109.592 216.422 108.644C216.422 107.684 216.608 106.862 216.98 106.178C217.364 105.494 217.856 104.966 218.456 104.594C219.056 104.222 219.686 104.036 220.346 104.036C221.462 104.036 222.32 104.408 222.92 105.152C223.532 105.896 223.838 106.892 223.838 108.14C223.838 108.296 223.832 108.452 223.82 108.608C223.82 108.752 223.808 108.878 223.784 108.986H217.88C217.94 109.91 218.228 110.648 218.744 111.2C219.272 111.752 219.956 112.028 220.796 112.028C221.216 112.028 221.6 111.968 221.948 111.848C222.308 111.716 222.65 111.548 222.974 111.344L223.496 112.316C223.124 112.556 222.698 112.766 222.218 112.946C221.75 113.126 221.216 113.216 220.616 113.216ZM217.862 107.924H222.542C222.542 107.036 222.35 106.364 221.966 105.908C221.594 105.44 221.066 105.206 220.382 105.206C219.77 105.206 219.218 105.446 218.726 105.926C218.246 106.394 217.958 107.06 217.862 107.924ZM228.987 113.216C227.895 113.216 227.019 112.82 226.359 112.028C225.699 111.224 225.369 110.096 225.369 108.644C225.369 107.696 225.543 106.88 225.891 106.196C226.251 105.5 226.719 104.966 227.295 104.594C227.883 104.222 228.507 104.036 229.167 104.036C229.671 104.036 230.109 104.126 230.481 104.306C230.853 104.486 231.231 104.732 231.615 105.044L231.543 103.55V100.184H233.037V113H231.813L231.687 111.974H231.633C231.297 112.31 230.901 112.604 230.445 112.856C229.989 113.096 229.503 113.216 228.987 113.216ZM229.311 111.974C230.079 111.974 230.823 111.572 231.543 110.768V106.196C231.171 105.86 230.811 105.626 230.463 105.494C230.127 105.35 229.779 105.278 229.419 105.278C228.951 105.278 228.525 105.422 228.141 105.71C227.769 105.986 227.469 106.376 227.241 106.88C227.013 107.372 226.899 107.954 226.899 108.626C226.899 109.67 227.109 110.492 227.529 111.092C227.949 111.68 228.543 111.974 229.311 111.974ZM235.984 113V104.252H237.46V113H235.984ZM236.74 102.452C236.452 102.452 236.212 102.368 236.02 102.2C235.84 102.02 235.75 101.78 235.75 101.48C235.75 101.192 235.84 100.958 236.02 100.778C236.212 100.598 236.452 100.508 236.74 100.508C237.028 100.508 237.262 100.598 237.442 100.778C237.634 100.958 237.73 101.192 237.73 101.48C237.73 101.78 237.634 102.02 237.442 102.2C237.262 102.368 237.028 102.452 236.74 102.452ZM243.87 113.216C243.102 113.216 242.406 113.036 241.782 112.676C241.158 112.316 240.666 111.794 240.306 111.11C239.946 110.426 239.766 109.604 239.766 108.644C239.766 107.66 239.958 106.826 240.342 106.142C240.738 105.458 241.254 104.936 241.89 104.576C242.538 104.216 243.234 104.036 243.978 104.036C244.554 104.036 245.046 104.138 245.454 104.342C245.874 104.546 246.234 104.786 246.534 105.062L245.778 106.034C245.526 105.806 245.256 105.62 244.968 105.476C244.692 105.332 244.38 105.26 244.032 105.26C243.504 105.26 243.03 105.404 242.61 105.692C242.202 105.968 241.878 106.364 241.638 106.88C241.41 107.384 241.296 107.972 241.296 108.644C241.296 109.64 241.542 110.45 242.034 111.074C242.538 111.686 243.192 111.992 243.996 111.992C244.404 111.992 244.782 111.908 245.13 111.74C245.478 111.56 245.784 111.35 246.048 111.11L246.696 112.1C246.3 112.448 245.862 112.724 245.382 112.928C244.902 113.12 244.398 113.216 243.87 113.216ZM248.622 113V104.252H250.098V113H248.622ZM249.378 102.452C249.09 102.452 248.85 102.368 248.658 102.2C248.478 102.02 248.388 101.78 248.388 101.48C248.388 101.192 248.478 100.958 248.658 100.778C248.85 100.598 249.09 100.508 249.378 100.508C249.666 100.508 249.9 100.598 250.08 100.778C250.272 100.958 250.368 101.192 250.368 101.48C250.368 101.78 250.272 102.02 250.08 102.2C249.9 102.368 249.666 102.452 249.378 102.452ZM253.052 113V104.252H254.276L254.402 105.512H254.456C254.876 105.092 255.32 104.744 255.788 104.468C256.256 104.18 256.79 104.036 257.39 104.036C258.314 104.036 258.986 104.33 259.406 104.918C259.838 105.494 260.054 106.34 260.054 107.456V113H258.578V107.654C258.578 106.838 258.446 106.244 258.182 105.872C257.918 105.5 257.498 105.314 256.922 105.314C256.478 105.314 256.076 105.428 255.716 105.656C255.368 105.884 254.972 106.22 254.528 106.664V113H253.052ZM266.442 113.216C265.662 113.216 264.954 113.036 264.318 112.676C263.682 112.304 263.178 111.776 262.806 111.092C262.434 110.408 262.248 109.592 262.248 108.644C262.248 107.684 262.434 106.862 262.806 106.178C263.19 105.494 263.682 104.966 264.282 104.594C264.882 104.222 265.512 104.036 266.172 104.036C267.288 104.036 268.146 104.408 268.746 105.152C269.358 105.896 269.664 106.892 269.664 108.14C269.664 108.296 269.658 108.452 269.646 108.608C269.646 108.752 269.634 108.878 269.61 108.986H263.706C263.766 109.91 264.054 110.648 264.57 111.2C265.098 111.752 265.782 112.028 266.622 112.028C267.042 112.028 267.426 111.968 267.774 111.848C268.134 111.716 268.476 111.548 268.8 111.344L269.322 112.316C268.95 112.556 268.524 112.766 268.044 112.946C267.576 113.126 267.042 113.216 266.442 113.216ZM263.688 107.924H268.368C268.368 107.036 268.176 106.364 267.792 105.908C267.42 105.44 266.892 105.206 266.208 105.206C265.596 105.206 265.044 105.446 264.552 105.926C264.072 106.394 263.784 107.06 263.688 107.924ZM274.112 113.216C273.488 113.216 272.894 113.102 272.33 112.874C271.766 112.634 271.274 112.346 270.854 112.01L271.592 111.02C271.976 111.32 272.372 111.572 272.78 111.776C273.188 111.968 273.65 112.064 274.166 112.064C274.742 112.064 275.174 111.932 275.462 111.668C275.75 111.392 275.894 111.068 275.894 110.696C275.894 110.396 275.792 110.144 275.588 109.94C275.396 109.736 275.144 109.568 274.832 109.436C274.532 109.292 274.22 109.16 273.896 109.04C273.488 108.884 273.086 108.71 272.69 108.518C272.294 108.314 271.97 108.056 271.718 107.744C271.466 107.42 271.34 107.012 271.34 106.52C271.34 105.812 271.604 105.224 272.132 104.756C272.672 104.276 273.416 104.036 274.364 104.036C274.904 104.036 275.408 104.132 275.876 104.324C276.344 104.516 276.746 104.75 277.082 105.026L276.362 105.962C276.062 105.734 275.75 105.548 275.426 105.404C275.102 105.26 274.748 105.188 274.364 105.188C273.812 105.188 273.404 105.314 273.14 105.566C272.888 105.818 272.762 106.112 272.762 106.448C272.762 106.724 272.852 106.952 273.032 107.132C273.212 107.3 273.446 107.45 273.734 107.582C274.022 107.702 274.328 107.828 274.652 107.96C275.072 108.116 275.486 108.296 275.894 108.5C276.302 108.692 276.638 108.956 276.902 109.292C277.178 109.616 277.316 110.054 277.316 110.606C277.316 111.074 277.19 111.506 276.938 111.902C276.698 112.298 276.338 112.616 275.858 112.856C275.39 113.096 274.808 113.216 274.112 113.216ZM285.958 113.216C284.866 113.216 283.99 112.82 283.33 112.028C282.67 111.224 282.34 110.096 282.34 108.644C282.34 107.696 282.514 106.88 282.862 106.196C283.222 105.5 283.69 104.966 284.266 104.594C284.854 104.222 285.478 104.036 286.138 104.036C286.642 104.036 287.08 104.126 287.452 104.306C287.824 104.486 288.202 104.732 288.586 105.044L288.514 103.55V100.184H290.008V113H288.784L288.658 111.974H288.604C288.268 112.31 287.872 112.604 287.416 112.856C286.96 113.096 286.474 113.216 285.958 113.216ZM286.282 111.974C287.05 111.974 287.794 111.572 288.514 110.768V106.196C288.142 105.86 287.782 105.626 287.434 105.494C287.098 105.35 286.75 105.278 286.39 105.278C285.922 105.278 285.496 105.422 285.112 105.71C284.74 105.986 284.44 106.376 284.212 106.88C283.984 107.372 283.87 107.954 283.87 108.626C283.87 109.67 284.08 110.492 284.5 111.092C284.92 111.68 285.514 111.974 286.282 111.974ZM296.501 113.216C295.721 113.216 295.013 113.036 294.377 112.676C293.741 112.304 293.237 111.776 292.865 111.092C292.493 110.408 292.307 109.592 292.307 108.644C292.307 107.684 292.493 106.862 292.865 106.178C293.249 105.494 293.741 104.966 294.341 104.594C294.941 104.222 295.571 104.036 296.231 104.036C297.347 104.036 298.205 104.408 298.805 105.152C299.417 105.896 299.723 106.892 299.723 108.14C299.723 108.296 299.717 108.452 299.705 108.608C299.705 108.752 299.693 108.878 299.669 108.986H293.765C293.825 109.91 294.113 110.648 294.629 111.2C295.157 111.752 295.841 112.028 296.681 112.028C297.101 112.028 297.485 111.968 297.833 111.848C298.193 111.716 298.535 111.548 298.859 111.344L299.381 112.316C299.009 112.556 298.583 112.766 298.103 112.946C297.635 113.126 297.101 113.216 296.501 113.216ZM293.747 107.924H298.427C298.427 107.036 298.235 106.364 297.851 105.908C297.479 105.44 296.951 105.206 296.267 105.206C295.655 105.206 295.103 105.446 294.611 105.926C294.131 106.394 293.843 107.06 293.747 107.924ZM303.862 113L300.712 104.252H302.242L303.898 109.22C304.03 109.652 304.162 110.084 304.294 110.516C304.438 110.948 304.576 111.374 304.708 111.794H304.78C304.912 111.374 305.044 110.948 305.176 110.516C305.32 110.084 305.452 109.652 305.572 109.22L307.228 104.252H308.686L305.59 113H303.862ZM313.85 113.216C313.07 113.216 312.362 113.036 311.726 112.676C311.09 112.304 310.586 111.776 310.214 111.092C309.842 110.408 309.656 109.592 309.656 108.644C309.656 107.684 309.842 106.862 310.214 106.178C310.598 105.494 311.09 104.966 311.69 104.594C312.29 104.222 312.92 104.036 313.58 104.036C314.696 104.036 315.554 104.408 316.154 105.152C316.766 105.896 317.072 106.892 317.072 108.14C317.072 108.296 317.066 108.452 317.054 108.608C317.054 108.752 317.042 108.878 317.018 108.986H311.114C311.174 109.91 311.462 110.648 311.978 111.2C312.506 111.752 313.19 112.028 314.03 112.028C314.45 112.028 314.834 111.968 315.182 111.848C315.542 111.716 315.884 111.548 316.208 111.344L316.73 112.316C316.358 112.556 315.932 112.766 315.452 112.946C314.984 113.126 314.45 113.216 313.85 113.216ZM311.096 107.924H315.776C315.776 107.036 315.584 106.364 315.2 105.908C314.828 105.44 314.3 105.206 313.616 105.206C313.004 105.206 312.452 105.446 311.96 105.926C311.48 106.394 311.192 107.06 311.096 107.924ZM320.8 113.216C320.248 113.216 319.846 113.048 319.594 112.712C319.354 112.364 319.234 111.872 319.234 111.236V100.184H320.71V111.344C320.71 111.572 320.752 111.74 320.836 111.848C320.92 111.944 321.016 111.992 321.124 111.992C321.172 111.992 321.214 111.992 321.25 111.992C321.298 111.98 321.364 111.968 321.448 111.956L321.646 113.072C321.55 113.12 321.436 113.156 321.304 113.18C321.172 113.204 321.004 113.216 320.8 113.216ZM327.224 113.216C326.516 113.216 325.85 113.036 325.226 112.676C324.614 112.316 324.116 111.794 323.732 111.11C323.36 110.426 323.174 109.604 323.174 108.644C323.174 107.66 323.36 106.826 323.732 106.142C324.116 105.458 324.614 104.936 325.226 104.576C325.85 104.216 326.516 104.036 327.224 104.036C327.944 104.036 328.61 104.216 329.222 104.576C329.834 104.936 330.326 105.458 330.698 106.142C331.082 106.826 331.274 107.66 331.274 108.644C331.274 109.604 331.082 110.426 330.698 111.11C330.326 111.794 329.834 112.316 329.222 112.676C328.61 113.036 327.944 113.216 327.224 113.216ZM327.224 111.992C327.98 111.992 328.586 111.686 329.042 111.074C329.51 110.45 329.744 109.64 329.744 108.644C329.744 107.636 329.51 106.82 329.042 106.196C328.586 105.572 327.98 105.26 327.224 105.26C326.48 105.26 325.874 105.572 325.406 106.196C324.938 106.82 324.704 107.636 324.704 108.644C324.704 109.64 324.938 110.45 325.406 111.074C325.874 111.686 326.48 111.992 327.224 111.992ZM333.578 116.69V104.252H334.802L334.928 105.26H334.982C335.378 104.924 335.81 104.636 336.278 104.396C336.758 104.156 337.256 104.036 337.772 104.036C338.9 104.036 339.758 104.444 340.346 105.26C340.934 106.064 341.228 107.144 341.228 108.5C341.228 109.484 341.048 110.33 340.688 111.038C340.34 111.746 339.878 112.286 339.302 112.658C338.738 113.03 338.12 113.216 337.448 113.216C337.04 113.216 336.632 113.126 336.224 112.946C335.828 112.766 335.426 112.52 335.018 112.208L335.054 113.738V116.69H333.578ZM337.196 111.974C337.916 111.974 338.51 111.668 338.978 111.056C339.458 110.432 339.698 109.58 339.698 108.5C339.698 107.54 339.518 106.766 339.158 106.178C338.81 105.578 338.222 105.278 337.394 105.278C337.022 105.278 336.644 105.38 336.26 105.584C335.888 105.788 335.486 106.082 335.054 106.466V111.056C335.45 111.392 335.834 111.632 336.206 111.776C336.578 111.908 336.908 111.974 337.196 111.974ZM347.108 113.216C346.328 113.216 345.62 113.036 344.984 112.676C344.348 112.304 343.844 111.776 343.472 111.092C343.1 110.408 342.914 109.592 342.914 108.644C342.914 107.684 343.1 106.862 343.472 106.178C343.856 105.494 344.348 104.966 344.948 104.594C345.548 104.222 346.178 104.036 346.838 104.036C347.954 104.036 348.812 104.408 349.412 105.152C350.024 105.896 350.33 106.892 350.33 108.14C350.33 108.296 350.324 108.452 350.312 108.608C350.312 108.752 350.3 108.878 350.276 108.986H344.372C344.432 109.91 344.72 110.648 345.236 111.2C345.764 111.752 346.448 112.028 347.288 112.028C347.708 112.028 348.092 111.968 348.44 111.848C348.8 111.716 349.142 111.548 349.466 111.344L349.988 112.316C349.616 112.556 349.19 112.766 348.71 112.946C348.242 113.126 347.708 113.216 347.108 113.216ZM344.354 107.924H349.034C349.034 107.036 348.842 106.364 348.458 105.908C348.086 105.44 347.558 105.206 346.874 105.206C346.262 105.206 345.71 105.446 345.218 105.926C344.738 106.394 344.45 107.06 344.354 107.924ZM355.48 113.216C354.388 113.216 353.512 112.82 352.852 112.028C352.192 111.224 351.862 110.096 351.862 108.644C351.862 107.696 352.036 106.88 352.384 106.196C352.744 105.5 353.212 104.966 353.788 104.594C354.376 104.222 355 104.036 355.66 104.036C356.164 104.036 356.602 104.126 356.974 104.306C357.346 104.486 357.724 104.732 358.108 105.044L358.036 103.55V100.184H359.53V113H358.306L358.18 111.974H358.126C357.79 112.31 357.394 112.604 356.938 112.856C356.482 113.096 355.996 113.216 355.48 113.216ZM355.804 111.974C356.572 111.974 357.316 111.572 358.036 110.768V106.196C357.664 105.86 357.304 105.626 356.956 105.494C356.62 105.35 356.272 105.278 355.912 105.278C355.444 105.278 355.018 105.422 354.634 105.71C354.262 105.986 353.962 106.376 353.734 106.88C353.506 107.372 353.392 107.954 353.392 108.626C353.392 109.67 353.602 110.492 354.022 111.092C354.442 111.68 355.036 111.974 355.804 111.974Z" fill="white"/>
<rect x="17" y="76" width="344" height="2" fill="white"/>
<g filter="url(#filter1_b_2_73)">
<rect x="388" width="378" height="138" rx="10" fill="#799EAE" fill-opacity="0.3"/>
</g>
<path d="M423.92 43.32L417.84 38.92V34.6L423.92 30.2L426.12 34.08L421.12 36.16V37.36L426.12 39.44L423.92 43.32ZM418.04 26.72L417.28 34.2L413.52 36.36L406.68 33.28L408.92 29.44L413.24 32.72L414.28 32.12L413.56 26.76L418.04 26.72ZM406.68 40.24L413.52 37.16L417.28 39.32L418.04 46.8L413.6 46.72L414.28 41.4L413.24 40.8L408.92 44.04L406.68 40.24ZM435.173 58V32.32L436.933 33.68H429.213V28.8H440.813V58H435.173ZM459.926 58.76C457.632 58.76 455.686 58.3867 454.086 57.64C452.486 56.8667 451.179 55.8267 450.166 54.52C449.152 53.1867 448.406 51.6667 447.926 49.96C447.472 48.2267 447.246 46.4133 447.246 44.52V42.28C447.246 39.5867 447.699 37.16 448.606 35C449.512 32.84 450.899 31.1333 452.766 29.88C454.632 28.6 457.019 27.96 459.926 27.96C462.806 27.96 465.179 28.6 467.046 29.88C468.912 31.1333 470.286 32.84 471.166 35C472.072 37.16 472.526 39.5867 472.526 42.28V44.52C472.526 46.4133 472.286 48.2267 471.806 49.96C471.352 51.6667 470.619 53.1867 469.606 54.52C468.619 55.8267 467.326 56.8667 465.726 57.64C464.126 58.3867 462.192 58.76 459.926 58.76ZM459.926 53.56C462.299 53.56 464.046 52.7467 465.166 51.12C466.286 49.4667 466.846 46.9067 466.846 43.44C466.846 39.76 466.272 37.1333 465.126 35.56C463.979 33.96 462.246 33.16 459.926 33.16C457.579 33.16 455.819 33.96 454.646 35.56C453.499 37.1333 452.926 39.7333 452.926 43.36C452.926 46.8533 453.499 49.4267 454.646 51.08C455.792 52.7333 457.552 53.56 459.926 53.56ZM476.52 51.96V45.8L487.96 28L492.24 30.92L482.16 46.68L482.64 47.48H500.56V51.96H476.52ZM491.8 58V37.08H497.04V58H491.8ZM524.004 58L513.324 44.36H509.204L521.884 28.8H528.404L516.964 42.8L516.804 40L530.924 58H524.004ZM505.084 58V28.8H510.764V58H505.084ZM540.026 54.12V34.36H544.906V54.12H540.026ZM532.786 46.48V42H552.146V46.48H532.786Z" fill="white"/>
<path d="M566.476 116.69V104.252H567.7L567.826 105.26H567.88C568.276 104.924 568.708 104.636 569.176 104.396C569.656 104.156 570.154 104.036 570.67 104.036C571.798 104.036 572.656 104.444 573.244 105.26C573.832 106.064 574.126 107.144 574.126 108.5C574.126 109.484 573.946 110.33 573.586 111.038C573.238 111.746 572.776 112.286 572.2 112.658C571.636 113.03 571.018 113.216 570.346 113.216C569.938 113.216 569.53 113.126 569.122 112.946C568.726 112.766 568.324 112.52 567.916 112.208L567.952 113.738V116.69H566.476ZM570.094 111.974C570.814 111.974 571.408 111.668 571.876 111.056C572.356 110.432 572.596 109.58 572.596 108.5C572.596 107.54 572.416 106.766 572.056 106.178C571.708 105.578 571.12 105.278 570.292 105.278C569.92 105.278 569.542 105.38 569.158 105.584C568.786 105.788 568.384 106.082 567.952 106.466V111.056C568.348 111.392 568.732 111.632 569.104 111.776C569.476 111.908 569.806 111.974 570.094 111.974ZM578.23 113.216C577.498 113.216 576.886 113 576.394 112.568C575.914 112.124 575.674 111.512 575.674 110.732C575.674 109.772 576.1 109.04 576.952 108.536C577.816 108.02 579.178 107.66 581.038 107.456C581.038 107.084 580.984 106.73 580.876 106.394C580.78 106.058 580.6 105.788 580.336 105.584C580.084 105.368 579.718 105.26 579.238 105.26C578.734 105.26 578.26 105.356 577.816 105.548C577.372 105.74 576.976 105.956 576.628 106.196L576.052 105.17C576.46 104.906 576.958 104.654 577.546 104.414C578.146 104.162 578.794 104.036 579.49 104.036C580.558 104.036 581.332 104.366 581.812 105.026C582.292 105.674 582.532 106.544 582.532 107.636V113H581.308L581.182 111.956H581.128C580.72 112.292 580.27 112.586 579.778 112.838C579.298 113.09 578.782 113.216 578.23 113.216ZM578.662 112.028C579.082 112.028 579.478 111.926 579.85 111.722C580.222 111.518 580.618 111.23 581.038 110.858V108.428C579.586 108.608 578.566 108.878 577.978 109.238C577.402 109.598 577.114 110.06 577.114 110.624C577.114 111.116 577.264 111.476 577.564 111.704C577.864 111.92 578.23 112.028 578.662 112.028ZM587.793 113.216C586.857 113.216 586.203 112.946 585.831 112.406C585.471 111.866 585.291 111.164 585.291 110.3V105.458H583.995V104.342L585.363 104.252L585.543 101.804H586.785V104.252H589.143V105.458H586.785V110.318C586.785 110.858 586.881 111.278 587.073 111.578C587.277 111.866 587.631 112.01 588.135 112.01C588.291 112.01 588.459 111.986 588.639 111.938C588.819 111.878 588.981 111.824 589.125 111.776L589.413 112.892C589.173 112.976 588.909 113.048 588.621 113.108C588.345 113.18 588.069 113.216 587.793 113.216ZM591.121 113V104.252H592.597V113H591.121ZM591.877 102.452C591.589 102.452 591.349 102.368 591.157 102.2C590.977 102.02 590.887 101.78 590.887 101.48C590.887 101.192 590.977 100.958 591.157 100.778C591.349 100.598 591.589 100.508 591.877 100.508C592.165 100.508 592.399 100.598 592.579 100.778C592.771 100.958 592.867 101.192 592.867 101.48C592.867 101.78 592.771 102.02 592.579 102.2C592.399 102.368 592.165 102.452 591.877 102.452ZM599.096 113.216C598.316 113.216 597.608 113.036 596.972 112.676C596.336 112.304 595.832 111.776 595.46 111.092C595.088 110.408 594.902 109.592 594.902 108.644C594.902 107.684 595.088 106.862 595.46 106.178C595.844 105.494 596.336 104.966 596.936 104.594C597.536 104.222 598.166 104.036 598.826 104.036C599.942 104.036 600.8 104.408 601.4 105.152C602.012 105.896 602.318 106.892 602.318 108.14C602.318 108.296 602.312 108.452 602.3 108.608C602.3 108.752 602.288 108.878 602.264 108.986H596.36C596.42 109.91 596.708 110.648 597.224 111.2C597.752 111.752 598.436 112.028 599.276 112.028C599.696 112.028 600.08 111.968 600.428 111.848C600.788 111.716 601.13 111.548 601.454 111.344L601.976 112.316C601.604 112.556 601.178 112.766 600.698 112.946C600.23 113.126 599.696 113.216 599.096 113.216ZM596.342 107.924H601.022C601.022 107.036 600.83 106.364 600.446 105.908C600.074 105.44 599.546 105.206 598.862 105.206C598.25 105.206 597.698 105.446 597.206 105.926C596.726 106.394 596.438 107.06 596.342 107.924ZM604.48 113V104.252H605.704L605.83 105.512H605.884C606.304 105.092 606.748 104.744 607.216 104.468C607.684 104.18 608.218 104.036 608.818 104.036C609.742 104.036 610.414 104.33 610.834 104.918C611.266 105.494 611.482 106.34 611.482 107.456V113H610.006V107.654C610.006 106.838 609.874 106.244 609.61 105.872C609.346 105.5 608.926 105.314 608.35 105.314C607.906 105.314 607.504 105.428 607.144 105.656C606.796 105.884 606.4 106.22 605.956 106.664V113H604.48ZM617.078 113.216C616.142 113.216 615.488 112.946 615.116 112.406C614.756 111.866 614.576 111.164 614.576 110.3V105.458H613.28V104.342L614.648 104.252L614.828 101.804H616.07V104.252H618.428V105.458H616.07V110.318C616.07 110.858 616.166 111.278 616.358 111.578C616.562 111.866 616.916 112.01 617.42 112.01C617.576 112.01 617.744 111.986 617.924 111.938C618.104 111.878 618.266 111.824 618.41 111.776L618.698 112.892C618.458 112.976 618.194 113.048 617.906 113.108C617.63 113.18 617.354 113.216 617.078 113.216ZM622.516 113.216C621.892 113.216 621.298 113.102 620.734 112.874C620.17 112.634 619.678 112.346 619.258 112.01L619.996 111.02C620.38 111.32 620.776 111.572 621.184 111.776C621.592 111.968 622.054 112.064 622.57 112.064C623.146 112.064 623.578 111.932 623.866 111.668C624.154 111.392 624.298 111.068 624.298 110.696C624.298 110.396 624.196 110.144 623.992 109.94C623.8 109.736 623.548 109.568 623.236 109.436C622.936 109.292 622.624 109.16 622.3 109.04C621.892 108.884 621.49 108.71 621.094 108.518C620.698 108.314 620.374 108.056 620.122 107.744C619.87 107.42 619.744 107.012 619.744 106.52C619.744 105.812 620.008 105.224 620.536 104.756C621.076 104.276 621.82 104.036 622.768 104.036C623.308 104.036 623.812 104.132 624.28 104.324C624.748 104.516 625.15 104.75 625.486 105.026L624.766 105.962C624.466 105.734 624.154 105.548 623.83 105.404C623.506 105.26 623.152 105.188 622.768 105.188C622.216 105.188 621.808 105.314 621.544 105.566C621.292 105.818 621.166 106.112 621.166 106.448C621.166 106.724 621.256 106.952 621.436 107.132C621.616 107.3 621.85 107.45 622.138 107.582C622.426 107.702 622.732 107.828 623.056 107.96C623.476 108.116 623.89 108.296 624.298 108.5C624.706 108.692 625.042 108.956 625.306 109.292C625.582 109.616 625.72 110.054 625.72 110.606C625.72 111.074 625.594 111.506 625.342 111.902C625.102 112.298 624.742 112.616 624.262 112.856C623.794 113.096 623.212 113.216 622.516 113.216ZM633.66 113.216C633.036 113.216 632.442 113.102 631.878 112.874C631.314 112.634 630.822 112.346 630.402 112.01L631.14 111.02C631.524 111.32 631.92 111.572 632.328 111.776C632.736 111.968 633.198 112.064 633.714 112.064C634.29 112.064 634.722 111.932 635.01 111.668C635.298 111.392 635.442 111.068 635.442 110.696C635.442 110.396 635.34 110.144 635.136 109.94C634.944 109.736 634.692 109.568 634.38 109.436C634.08 109.292 633.768 109.16 633.444 109.04C633.036 108.884 632.634 108.71 632.238 108.518C631.842 108.314 631.518 108.056 631.266 107.744C631.014 107.42 630.888 107.012 630.888 106.52C630.888 105.812 631.152 105.224 631.68 104.756C632.22 104.276 632.964 104.036 633.912 104.036C634.452 104.036 634.956 104.132 635.424 104.324C635.892 104.516 636.294 104.75 636.63 105.026L635.91 105.962C635.61 105.734 635.298 105.548 634.974 105.404C634.65 105.26 634.296 105.188 633.912 105.188C633.36 105.188 632.952 105.314 632.688 105.566C632.436 105.818 632.31 106.112 632.31 106.448C632.31 106.724 632.4 106.952 632.58 107.132C632.76 107.3 632.994 107.45 633.282 107.582C633.57 107.702 633.876 107.828 634.2 107.96C634.62 108.116 635.034 108.296 635.442 108.5C635.85 108.692 636.186 108.956 636.45 109.292C636.726 109.616 636.864 110.054 636.864 110.606C636.864 111.074 636.738 111.506 636.486 111.902C636.246 112.298 635.886 112.616 635.406 112.856C634.938 113.096 634.356 113.216 633.66 113.216ZM641.471 113.216C640.547 113.216 639.869 112.928 639.437 112.352C639.005 111.764 638.789 110.912 638.789 109.796V104.252H640.283V109.598C640.283 110.414 640.409 111.008 640.661 111.38C640.925 111.752 641.345 111.938 641.921 111.938C642.377 111.938 642.779 111.824 643.127 111.596C643.487 111.356 643.871 110.978 644.279 110.462V104.252H645.755V113H644.531L644.405 111.632H644.351C643.943 112.112 643.511 112.496 643.055 112.784C642.599 113.072 642.071 113.216 641.471 113.216ZM648.706 116.69V104.252H649.93L650.056 105.26H650.11C650.506 104.924 650.938 104.636 651.406 104.396C651.886 104.156 652.384 104.036 652.9 104.036C654.028 104.036 654.886 104.444 655.474 105.26C656.062 106.064 656.356 107.144 656.356 108.5C656.356 109.484 656.176 110.33 655.816 111.038C655.468 111.746 655.006 112.286 654.43 112.658C653.866 113.03 653.248 113.216 652.576 113.216C652.168 113.216 651.76 113.126 651.352 112.946C650.956 112.766 650.554 112.52 650.146 112.208L650.182 113.738V116.69H648.706ZM652.324 111.974C653.044 111.974 653.638 111.668 654.106 111.056C654.586 110.432 654.826 109.58 654.826 108.5C654.826 107.54 654.646 106.766 654.286 106.178C653.938 105.578 653.35 105.278 652.522 105.278C652.15 105.278 651.772 105.38 651.388 105.584C651.016 105.788 650.614 106.082 650.182 106.466V111.056C650.578 111.392 650.962 111.632 651.334 111.776C651.706 111.908 652.036 111.974 652.324 111.974ZM658.691 116.69V104.252H659.915L660.041 105.26H660.095C660.491 104.924 660.923 104.636 661.391 104.396C661.871 104.156 662.369 104.036 662.885 104.036C664.013 104.036 664.871 104.444 665.459 105.26C666.047 106.064 666.341 107.144 666.341 108.5C666.341 109.484 666.161 110.33 665.801 111.038C665.453 111.746 664.991 112.286 664.415 112.658C663.851 113.03 663.233 113.216 662.561 113.216C662.153 113.216 661.745 113.126 661.337 112.946C660.941 112.766 660.539 112.52 660.131 112.208L660.167 113.738V116.69H658.691ZM662.309 111.974C663.029 111.974 663.623 111.668 664.091 111.056C664.571 110.432 664.811 109.58 664.811 108.5C664.811 107.54 664.631 106.766 664.271 106.178C663.923 105.578 663.335 105.278 662.507 105.278C662.135 105.278 661.757 105.38 661.373 105.584C661.001 105.788 660.599 106.082 660.167 106.466V111.056C660.563 111.392 660.947 111.632 661.319 111.776C661.691 111.908 662.021 111.974 662.309 111.974ZM672.077 113.216C671.369 113.216 670.703 113.036 670.079 112.676C669.467 112.316 668.969 111.794 668.585 111.11C668.213 110.426 668.027 109.604 668.027 108.644C668.027 107.66 668.213 106.826 668.585 106.142C668.969 105.458 669.467 104.936 670.079 104.576C670.703 104.216 671.369 104.036 672.077 104.036C672.797 104.036 673.463 104.216 674.075 104.576C674.687 104.936 675.179 105.458 675.551 106.142C675.935 106.826 676.127 107.66 676.127 108.644C676.127 109.604 675.935 110.426 675.551 111.11C675.179 111.794 674.687 112.316 674.075 112.676C673.463 113.036 672.797 113.216 672.077 113.216ZM672.077 111.992C672.833 111.992 673.439 111.686 673.895 111.074C674.363 110.45 674.597 109.64 674.597 108.644C674.597 107.636 674.363 106.82 673.895 106.196C673.439 105.572 672.833 105.26 672.077 105.26C671.333 105.26 670.727 105.572 670.259 106.196C669.791 106.82 669.557 107.636 669.557 108.644C669.557 109.64 669.791 110.45 670.259 111.074C670.727 111.686 671.333 111.992 672.077 111.992ZM678.431 113V104.252H679.655L679.781 105.836H679.835C680.135 105.284 680.501 104.846 680.933 104.522C681.365 104.198 681.827 104.036 682.319 104.036C682.667 104.036 682.979 104.096 683.255 104.216L682.967 105.512C682.823 105.464 682.691 105.428 682.571 105.404C682.451 105.38 682.301 105.368 682.121 105.368C681.749 105.368 681.359 105.518 680.951 105.818C680.555 106.118 680.207 106.64 679.907 107.384V113H678.431ZM687.425 113.216C686.489 113.216 685.835 112.946 685.463 112.406C685.103 111.866 684.923 111.164 684.923 110.3V105.458H683.627V104.342L684.995 104.252L685.175 101.804H686.417V104.252H688.775V105.458H686.417V110.318C686.417 110.858 686.513 111.278 686.705 111.578C686.909 111.866 687.263 112.01 687.767 112.01C687.923 112.01 688.091 111.986 688.271 111.938C688.451 111.878 688.613 111.824 688.757 111.776L689.045 112.892C688.805 112.976 688.541 113.048 688.253 113.108C687.977 113.18 687.701 113.216 687.425 113.216ZM694.053 113.216C693.273 113.216 692.565 113.036 691.929 112.676C691.293 112.304 690.789 111.776 690.417 111.092C690.045 110.408 689.859 109.592 689.859 108.644C689.859 107.684 690.045 106.862 690.417 106.178C690.801 105.494 691.293 104.966 691.893 104.594C692.493 104.222 693.123 104.036 693.783 104.036C694.899 104.036 695.757 104.408 696.357 105.152C696.969 105.896 697.275 106.892 697.275 108.14C697.275 108.296 697.269 108.452 697.257 108.608C697.257 108.752 697.245 108.878 697.221 108.986H691.317C691.377 109.91 691.665 110.648 692.181 111.2C692.709 111.752 693.393 112.028 694.233 112.028C694.653 112.028 695.037 111.968 695.385 111.848C695.745 111.716 696.087 111.548 696.411 111.344L696.933 112.316C696.561 112.556 696.135 112.766 695.655 112.946C695.187 113.126 694.653 113.216 694.053 113.216ZM691.299 107.924H695.979C695.979 107.036 695.787 106.364 695.403 105.908C695.031 105.44 694.503 105.206 693.819 105.206C693.207 105.206 692.655 105.446 692.163 105.926C691.683 106.394 691.395 107.06 691.299 107.924ZM702.425 113.216C701.333 113.216 700.457 112.82 699.797 112.028C699.137 111.224 698.807 110.096 698.807 108.644C698.807 107.696 698.981 106.88 699.329 106.196C699.689 105.5 700.157 104.966 700.733 104.594C701.321 104.222 701.945 104.036 702.605 104.036C703.109 104.036 703.547 104.126 703.919 104.306C704.291 104.486 704.669 104.732 705.053 105.044L704.981 103.55V100.184H706.475V113H705.251L705.125 111.974H705.071C704.735 112.31 704.339 112.604 703.883 112.856C703.427 113.096 702.941 113.216 702.425 113.216ZM702.749 111.974C703.517 111.974 704.261 111.572 704.981 110.768V106.196C704.609 105.86 704.249 105.626 703.901 105.494C703.565 105.35 703.217 105.278 702.857 105.278C702.389 105.278 701.963 105.422 701.579 105.71C701.207 105.986 700.907 106.376 700.679 106.88C700.451 107.372 700.337 107.954 700.337 108.626C700.337 109.67 700.547 110.492 700.967 111.092C701.387 111.68 701.981 111.974 702.749 111.974ZM716.013 113.216C714.921 113.216 714.045 112.82 713.385 112.028C712.725 111.224 712.395 110.096 712.395 108.644C712.395 107.696 712.569 106.88 712.917 106.196C713.277 105.5 713.745 104.966 714.321 104.594C714.909 104.222 715.533 104.036 716.193 104.036C716.697 104.036 717.135 104.126 717.507 104.306C717.879 104.486 718.257 104.732 718.641 105.044L718.569 103.55V100.184H720.063V113H718.839L718.713 111.974H718.659C718.323 112.31 717.927 112.604 717.471 112.856C717.015 113.096 716.529 113.216 716.013 113.216ZM716.337 111.974C717.105 111.974 717.849 111.572 718.569 110.768V106.196C718.197 105.86 717.837 105.626 717.489 105.494C717.153 105.35 716.805 105.278 716.445 105.278C715.977 105.278 715.551 105.422 715.167 105.71C714.795 105.986 714.495 106.376 714.267 106.88C714.039 107.372 713.925 107.954 713.925 108.626C713.925 109.67 714.135 110.492 714.555 111.092C714.975 111.68 715.569 111.974 716.337 111.974ZM725.025 113.216C724.293 113.216 723.681 113 723.189 112.568C722.709 112.124 722.469 111.512 722.469 110.732C722.469 109.772 722.895 109.04 723.747 108.536C724.611 108.02 725.973 107.66 727.833 107.456C727.833 107.084 727.779 106.73 727.671 106.394C727.575 106.058 727.395 105.788 727.131 105.584C726.879 105.368 726.513 105.26 726.033 105.26C725.529 105.26 725.055 105.356 724.611 105.548C724.167 105.74 723.771 105.956 723.423 106.196L722.847 105.17C723.255 104.906 723.753 104.654 724.341 104.414C724.941 104.162 725.589 104.036 726.285 104.036C727.353 104.036 728.127 104.366 728.607 105.026C729.087 105.674 729.327 106.544 729.327 107.636V113H728.103L727.977 111.956H727.923C727.515 112.292 727.065 112.586 726.573 112.838C726.093 113.09 725.577 113.216 725.025 113.216ZM725.457 112.028C725.877 112.028 726.273 111.926 726.645 111.722C727.017 111.518 727.413 111.23 727.833 110.858V108.428C726.381 108.608 725.361 108.878 724.773 109.238C724.197 109.598 723.909 110.06 723.909 110.624C723.909 111.116 724.059 111.476 724.359 111.704C724.659 111.92 725.025 112.028 725.457 112.028ZM732.08 113V104.252H733.556V113H732.08ZM732.836 102.452C732.548 102.452 732.308 102.368 732.116 102.2C731.936 102.02 731.846 101.78 731.846 101.48C731.846 101.192 731.936 100.958 732.116 100.778C732.308 100.598 732.548 100.508 732.836 100.508C733.124 100.508 733.358 100.598 733.538 100.778C733.73 100.958 733.826 101.192 733.826 101.48C733.826 101.78 733.73 102.02 733.538 102.2C733.358 102.368 733.124 102.452 732.836 102.452ZM738.075 113.216C737.523 113.216 737.121 113.048 736.869 112.712C736.629 112.364 736.509 111.872 736.509 111.236V100.184H737.985V111.344C737.985 111.572 738.027 111.74 738.111 111.848C738.195 111.944 738.291 111.992 738.399 111.992C738.447 111.992 738.489 111.992 738.525 111.992C738.573 111.98 738.639 111.968 738.723 111.956L738.921 113.072C738.825 113.12 738.711 113.156 738.579 113.18C738.447 113.204 738.279 113.216 738.075 113.216ZM741.241 116.762C741.049 116.762 740.863 116.744 740.683 116.708C740.515 116.672 740.359 116.63 740.215 116.582L740.503 115.412C740.599 115.436 740.707 115.46 740.827 115.484C740.947 115.52 741.061 115.538 741.169 115.538C741.661 115.538 742.069 115.358 742.393 114.998C742.717 114.65 742.969 114.206 743.149 113.666L743.347 113.018L739.837 104.252H741.367L743.149 109.094C743.281 109.466 743.419 109.868 743.563 110.3C743.719 110.732 743.863 111.152 743.995 111.56H744.067C744.199 111.164 744.325 110.75 744.445 110.318C744.565 109.886 744.685 109.478 744.805 109.094L746.371 104.252H747.811L744.517 113.72C744.313 114.296 744.067 114.812 743.779 115.268C743.503 115.724 743.155 116.084 742.735 116.348C742.327 116.624 741.829 116.762 741.241 116.762Z" fill="white"/>
<rect x="405" y="76" width="344" height="2" fill="white"/>
<defs>
<filter id="filter0_b_2_73" x="-30" y="-30" width="438" height="198" filterUnits="userSpaceOnUse" color-interpolation-filters="sRGB">
<feFlood flood-opacity="0" result="BackgroundImageFix"/>
<feGaussianBlur in="BackgroundImageFix" stdDeviation="15"/>
<feComposite in2="SourceAlpha" operator="in" result="effect1_backgroundBlur_2_73"/>
<feBlend mode="normal" in="SourceGraphic" in2="effect1_backgroundBlur_2_73" result="shape"/>
</filter>
<filter id="filter1_b_2_73" x="358" y="-30" width="438" height="198" filterUnits="userSpaceOnUse" color-interpolation-filters="sRGB">
<feFlood flood-opacity="0" result="BackgroundImageFix"/>
<feGaussianBlur in="BackgroundImageFix" stdDeviation="15"/>
<feComposite in2="SourceAlpha" operator="in" result="effect1_backgroundBlur_2_73"/>
<feBlend mode="normal" in="SourceGraphic" in2="effect1_backgroundBlur_2_73" result="shape"/>
</filter>
</defs>
</svg>
